# xmcd
#
# Track frame offsets:
#	150
#	9812
#	23524
#	39359
#	55388
#	75713
#	90526
#	113474
#	127930
#	142294
#	155500
# Disc length: 2254 seconds
# Revision: 1
# Processed by: cddbd v1.5.2PL0 Copyright (c) Steve Scherf et al.
#
# Submitted via: libkcddb 0.31
#
DISCID=7908cc0b
DTITLE=Bumba meu Boi de Axixá - Bumba meu Boi de Axixá
DYEAR=2008
DGENRE=
TTITLE0=Guarnice
TTITLE1=La Vai
TTITLE2=Chegada
TTITLE3=Minha paixão
TTITLE4=India Guerreira
TTITLE5=Menina Linda
TTITLE6=Guerra da Balaiada
TTITLE7=Urrou
TTITLE8=Este Sim
TTITLE9=Touro Famoso
TTITLE10=Despedida
EXTD=Grupo Folclórico Bumba meu boi de Axixá fundado em 1959 por Francisco Naiva
EXTT0=
EXTT1=
EXTT2=
EXTT3=
EXTT4=
EXTT5=
EXTT6=
EXTT7=
EXTT8=
EXTT9=
EXTT10=
PLAYORDER=
